<svg xmlns="http://www.w3.org/2000/svg" xmlns:xlink="http://www.w3.org/1999/xlink" width="1302" zoomAndPan="magnify" viewBox="0 0 976.5 488.249999" height="651" preserveAspectRatio="xMidYMid meet" version="1.0"><defs><g/><clipPath id="2c03692034"><path d="M 0.5 0 L 975.5 0 L 975.5 487.5 L 0.5 487.5 Z M 0.5 0 " clip-rule="nonzero"/></clipPath><clipPath id="39bbba47b8"><path d="M 38 0 L 40 0 L 40 487.5 L 38 487.5 Z M 38 0 " clip-rule="nonzero"/></clipPath><clipPath id="91cd6f9ea0"><path d="M 75 0 L 77 0 L 77 487.5 L 75 487.5 Z M 75 0 " clip-rule="nonzero"/></clipPath><clipPath id="9019d5a22d"><path d="M 113 0 L 115 0 L 115 487.5 L 113 487.5 Z M 113 0 " clip-rule="nonzero"/></clipPath><clipPath id="9950933162"><path d="M 150 0 L 152 0 L 152 487.5 L 150 487.5 Z M 150 0 " clip-rule="nonzero"/></clipPath><clipPath id="7016903076"><path d="M 187 0 L 189 0 L 189 487.5 L 187 487.5 Z M 187 0 " clip-rule="nonzero"/></clipPath><clipPath id="4a1b349ded"><path d="M 225 0 L 227 0 L 227 487.5 L 225 487.5 Z M 225 0 " clip-rule="nonzero"/></clipPath><clipPath id="954114a396"><path d="M 262 0 L 264 0 L 264 487.5 L 262 487.5 Z M 262 0 " clip-rule="nonzero"/></clipPath><clipPath id="b75d6ba440"><path d="M 299 0 L 301 0 L 301 487.5 L 299 487.5 Z M 299 0 " clip-rule="nonzero"/></clipPath><clipPath id="b35c5134b6"><path d="M 337 0 L 339 0 L 339 487.5 L 337 487.5 Z M 337 0 " clip-rule="nonzero"/></clipPath><clipPath id="151cc621dc"><path d="M 374 0 L 376 0 L 376 487.5 L 374 487.5 Z M 374 0 " clip-rule="nonzero"/></clipPath><clipPath id="7081953434"><path d="M 411 0 L 413 0 L 413 487.5 L 411 487.5 Z M 411 0 " clip-rule="nonzero"/></clipPath><clipPath id="4b1cf468e7"><path d="M 449 0 L 451 0 L 451 487.5 L 449 487.5 Z M 449 0 " clip-rule="nonzero"/></clipPath><clipPath id="0866e7211e"><path d="M 0.5 37 L 488 37 L 488 39 L 0.5 39 Z M 0.5 37 " clip-rule="nonzero"/></clipPath><clipPath id="b8b04bdc92"><path d="M 0.5 75 L 488 75 L 488 77 L 0.5 77 Z M 0.5 75 " clip-rule="nonzero"/></clipPath><clipPath id="36d8994575"><path d="M 0.5 112 L 488 112 L 488 114 L 0.5 114 Z M 0.5 112 " clip-rule="nonzero"/></clipPath><clipPath id="79f9cf400d"><path d="M 0.5 149 L 488 149 L 488 151 L 0.5 151 Z M 0.5 149 " clip-rule="nonzero"/></clipPath><clipPath id="1438d5b40c"><path d="M 0.5 187 L 488 187 L 488 189 L 0.5 189 Z M 0.5 187 " clip-rule="nonzero"/></clipPath><clipPath id="f0b3e67ddb"><path d="M 0.5 224 L 488 224 L 488 226 L 0.5 226 Z M 0.5 224 " clip-rule="nonzero"/></clipPath><clipPath id="2b021d10c6"><path d="M 0.5 261 L 488 261 L 488 263 L 0.5 263 Z M 0.5 261 " clip-rule="nonzero"/></clipPath><clipPath id="0bb56176e6"><path d="M 0.5 299 L 488 299 L 488 301 L 0.5 301 Z M 0.5 299 " clip-rule="nonzero"/></clipPath><clipPath id="d8a17afdf4"><path d="M 0.5 336 L 488 336 L 488 338 L 0.5 338 Z M 0.5 336 " clip-rule="nonzero"/></clipPath><clipPath id="ef87fb3626"><path d="M 0.5 373 L 488 373 L 488 375 L 0.5 375 Z M 0.5 373 " clip-rule="nonzero"/></clipPath><clipPath id="6336ac5b3b"><path d="M 0.5 411 L 488 411 L 488 413 L 0.5 413 Z M 0.5 411 " clip-rule="nonzero"/></clipPath><clipPath id="6a7a560254"><path d="M 0.5 448 L 488 448 L 488 450 L 0.5 450 Z M 0.5 448 " clip-rule="nonzero"/></clipPath><clipPath id="cdc77fb32f"><path d="M 488 0 L 490 0 L 490 487.5 L 488 487.5 Z M 488 0 " clip-rule="nonzero"/></clipPath><clipPath id="b94fce6488"><path d="M 526 0 L 528 0 L 528 487.5 L 526 487.5 Z M 526 0 " clip-rule="nonzero"/></clipPath><clipPath id="cdbbaedd7e"><path d="M 563 0 L 565 0 L 565 487.5 L 563 487.5 Z M 563 0 " clip-rule="nonzero"/></clipPath><clipPath id="2d02c7c69c"><path d="M 600 0 L 602 0 L 602 487.5 L 600 487.5 Z M 600 0 " clip-rule="nonzero"/></clipPath><clipPath id="0403abc000"><path d="M 638 0 L 640 0 L 640 487.5 L 638 487.5 Z M 638 0 " clip-rule="nonzero"/></clipPath><clipPath id="3296467723"><path d="M 675 0 L 677 0 L 677 487.5 L 675 487.5 Z M 675 0 " clip-rule="nonzero"/></clipPath><clipPath id="528371b7e5"><path d="M 712 0 L 714 0 L 714 487.5 L 712 487.5 Z M 712 0 " clip-rule="nonzero"/></clipPath><clipPath id="a329cb1354"><path d="M 750 0 L 752 0 L 752 487.5 L 750 487.5 Z M 750 0 " clip-rule="nonzero"/></clipPath><clipPath id="c1639a5361"><path d="M 787 0 L 789 0 L 789 487.5 L 787 487.5 Z M 787 0 " clip-rule="nonzero"/></clipPath><clipPath id="2c38cdc729"><path d="M 824 0 L 826 0 L 826 487.5 L 824 487.5 Z M 824 0 " clip-rule="nonzero"/></clipPath><clipPath id="4b50c12e30"><path d="M 862 0 L 864 0 L 864 487.5 L 862 487.5 Z M 862 0 " clip-rule="nonzero"/></clipPath><clipPath id="537260cca3"><path d="M 899 0 L 901 0 L 901 487.5 L 899 487.5 Z M 899 0 " clip-rule="nonzero"/></clipPath><clipPath id="02708af912"><path d="M 450.882812 37 L 938.382812 37 L 938.382812 39 L 450.882812 39 Z M 450.882812 37 " clip-rule="nonzero"/></clipPath><clipPath id="9529c7df64"><path d="M 450.882812 75 L 938.382812 75 L 938.382812 77 L 450.882812 77 Z M 450.882812 75 " clip-rule="nonzero"/></clipPath><clipPath id="255a887e09"><path d="M 450.882812 112 L 938.382812 112 L 938.382812 114 L 450.882812 114 Z M 450.882812 112 " clip-rule="nonzero"/></clipPath><clipPath id="e116f62e16"><path d="M 450.882812 149 L 938.382812 149 L 938.382812 151 L 450.882812 151 Z M 450.882812 149 " clip-rule="nonzero"/></clipPath><clipPath id="b143e70d55"><path d="M 450.882812 187 L 938.382812 187 L 938.382812 189 L 450.882812 189 Z M 450.882812 187 " clip-rule="nonzero"/></clipPath><clipPath id="a1ae923d93"><path d="M 450.882812 224 L 938.382812 224 L 938.382812 226 L 450.882812 226 Z M 450.882812 224 " clip-rule="nonzero"/></clipPath><clipPath id="6084508a71"><path d="M 450.882812 261 L 938.382812 261 L 938.382812 263 L 450.882812 263 Z M 450.882812 261 " clip-rule="nonzero"/></clipPath><clipPath id="55f8ffd349"><path d="M 450.882812 299 L 938.382812 299 L 938.382812 301 L 450.882812 301 Z M 450.882812 299 " clip-rule="nonzero"/></clipPath><clipPath id="86c43cd563"><path d="M 450.882812 336 L 938.382812 336 L 938.382812 338 L 450.882812 338 Z M 450.882812 336 " clip-rule="nonzero"/></clipPath><clipPath id="740cacab65"><path d="M 450.882812 373 L 938.382812 373 L 938.382812 375 L 450.882812 375 Z M 450.882812 373 " clip-rule="nonzero"/></clipPath><clipPath id="089d6cd634"><path d="M 450.882812 411 L 938.382812 411 L 938.382812 413 L 450.882812 413 Z M 450.882812 411 " clip-rule="nonzero"/></clipPath><clipPath id="e315b9be98"><path d="M 450.882812 448 L 938.382812 448 L 938.382812 450 L 450.882812 450 Z M 450.882812 448 " clip-rule="nonzero"/></clipPath><clipPath id="40b2d5912a"><path d="M 937 0 L 939 0 L 939 487.5 L 937 487.5 Z M 937 0 " clip-rule="nonzero"/></clipPath><clipPath id="8f462f3b3f"><path d="M 974 0 L 975.5 0 L 975.5 487.5 L 974 487.5 Z M 974 0 " clip-rule="nonzero"/></clipPath><clipPath id="6e1ea3966e"><path d="M 899.132812 37 L 975.5 37 L 975.5 39 L 899.132812 39 Z M 899.132812 37 " clip-rule="nonzero"/></clipPath><clipPath id="8702335be2"><path d="M 899.132812 75 L 975.5 75 L 975.5 77 L 899.132812 77 Z M 899.132812 75 " clip-rule="nonzero"/></clipPath><clipPath id="648539fad8"><path d="M 899.132812 112 L 975.5 112 L 975.5 114 L 899.132812 114 Z M 899.132812 112 " clip-rule="nonzero"/></clipPath><clipPath id="462a05093e"><path d="M 899.132812 149 L 975.5 149 L 975.5 151 L 899.132812 151 Z M 899.132812 149 " clip-rule="nonzero"/></clipPath><clipPath id="69a9b9d914"><path d="M 899.132812 187 L 975.5 187 L 975.5 189 L 899.132812 189 Z M 899.132812 187 " clip-rule="nonzero"/></clipPath><clipPath id="2db5011671"><path d="M 899.132812 224 L 975.5 224 L 975.5 226 L 899.132812 226 Z M 899.132812 224 " clip-rule="nonzero"/></clipPath><clipPath id="e335166022"><path d="M 899.132812 261 L 975.5 261 L 975.5 263 L 899.132812 263 Z M 899.132812 261 " clip-rule="nonzero"/></clipPath><clipPath id="2d9aa9742f"><path d="M 899.132812 299 L 975.5 299 L 975.5 301 L 899.132812 301 Z M 899.132812 299 " clip-rule="nonzero"/></clipPath><clipPath id="30d9fc5cbc"><path d="M 899.132812 336 L 975.5 336 L 975.5 338 L 899.132812 338 Z M 899.132812 336 " clip-rule="nonzero"/></clipPath><clipPath id="0944a42591"><path d="M 899.132812 373 L 975.5 373 L 975.5 375 L 899.132812 375 Z M 899.132812 373 " clip-rule="nonzero"/></clipPath><clipPath id="1ac44e99af"><path d="M 899.132812 411 L 975.5 411 L 975.5 413 L 899.132812 413 Z M 899.132812 411 " clip-rule="nonzero"/></clipPath><clipPath id="282ec7f67b"><path d="M 899.132812 448 L 975.5 448 L 975.5 450 L 899.132812 450 Z M 899.132812 448 " clip-rule="nonzero"/></clipPath></defs><g clip-path="url(#2c03692034)"><path fill="#ffffff" d="M 0.5 0 L 975.5 0 L 975.5 487.5 L 0.5 487.5 Z M 0.5 0 " fill-opacity="1" fill-rule="nonzero"/><path fill="#070707" d="M 0.5 0 L 975.5 0 L 975.5 487.5 L 0.5 487.5 Z M 0.5 0 " fill-opacity="1" fill-rule="nonzero"/></g><g fill="#202020" fill-opacity="1"><g transform="translate(28.087856, 324.771301)"><g><path d="M 45.53125 2.734375 C 17.09375 2.734375 2.875 -10.300781 2.875 -36.375 L 2.875 -149.453125 C 2.875 -175.523438 17.09375 -188.5625 45.53125 -188.5625 C 73.425781 -188.5625 87.460938 -177.347656 87.640625 -154.921875 L 87.640625 -104.734375 L 49.359375 -104.875 L 49.359375 -157.375 C 49.359375 -160.019531 48.082031 -161.34375 45.53125 -161.34375 C 42.882812 -161.34375 41.5625 -160.019531 41.5625 -157.375 L 41.5625 -24.609375 C 41.5625 -21.960938 42.882812 -20.640625 45.53125 -20.640625 C 47.257812 -20.640625 48.628906 -21.003906 49.640625 -21.734375 L 49.640625 -79.578125 L 46.078125 -79.578125 L 46.078125 -98.578125 L 87.78125 -98.578125 L 87.78125 -6.5625 C 77.207031 -0.363281 63.125 2.734375 45.53125 2.734375 Z M 45.53125 2.734375 "/></g></g></g><g fill="#202020" fill-opacity="1"><g transform="translate(120.831818, 324.771301)"><g><path d="M 83.140625 0 L 47.3125 0 L 44.578125 -67.140625 L 39.515625 -67.140625 L 39.515625 0 L 3.5625 0 L 3.5625 -185.953125 L 41.984375 -185.953125 C 50.179688 -185.953125 57.359375 -185.15625 63.515625 -183.5625 C 69.671875 -181.96875 74.429688 -179.003906 77.796875 -174.671875 C 81.171875 -170.347656 82.859375 -163.992188 82.859375 -155.609375 L 82.859375 -94.890625 C 82.859375 -90.148438 82.175781 -86.140625 80.8125 -82.859375 C 79.445312 -79.578125 77.488281 -76.890625 74.9375 -74.796875 Z M 43.078125 -88.1875 C 44.617188 -88.1875 45.707031 -88.617188 46.34375 -89.484375 C 46.988281 -90.359375 47.3125 -91.84375 47.3125 -93.9375 L 47.3125 -154.515625 C 47.3125 -156.515625 46.988281 -157.898438 46.34375 -158.671875 C 45.707031 -159.453125 44.570312 -159.84375 42.9375 -159.84375 L 39.515625 -159.84375 L 39.515625 -88.1875 Z M 43.078125 -88.1875 "/></g></g></g><g fill="#202020" fill-opacity="1"><g transform="translate(208.516681, 324.771301)"><g><path d="M 48.265625 0 L 47.453125 -26.25 L 39.25 -26.25 L 38.421875 0 L 0.6875 0 L 22.703125 -185.953125 L 63.859375 -185.953125 L 86 0 Z M 39.921875 -47.453125 L 46.765625 -47.453125 L 43.890625 -134.140625 L 42.53125 -134.140625 Z M 39.921875 -47.453125 "/></g></g></g><g fill="#202020" fill-opacity="1"><g transform="translate(296.885212, 324.771301)"><g><path d="M 3.5625 0 L 3.5625 -185.953125 L 41.984375 -185.953125 C 50.179688 -185.953125 57.359375 -185.15625 63.515625 -183.5625 C 69.671875 -181.96875 74.429688 -179.003906 77.796875 -174.671875 C 81.171875 -170.347656 82.859375 -163.992188 82.859375 -155.609375 L 82.859375 -73.5625 C 82.765625 -65.445312 81.03125 -59.222656 77.65625 -54.890625 C 74.289062 -50.566406 69.734375 -47.609375 63.984375 -46.015625 C 58.242188 -44.421875 51.726562 -43.625 44.4375 -43.625 L 41.296875 -43.625 L 41.296875 0 Z M 39.515625 -67.265625 L 43.078125 -67.265625 C 44.617188 -67.265625 45.707031 -67.648438 46.34375 -68.421875 C 46.988281 -69.203125 47.3125 -70.597656 47.3125 -72.609375 L 47.3125 -154.515625 C 47.3125 -156.515625 46.988281 -157.898438 46.34375 -158.671875 C 45.707031 -159.453125 44.570312 -159.84375 42.9375 -159.84375 L 39.515625 -159.84375 Z M 39.515625 -67.265625 "/></g></g></g><g fill="#202020" fill-opacity="1"><g transform="translate(384.570059, 324.771301)"><g><path d="M 3.5625 0 L 3.5625 -185.953125 L 40.34375 -185.953125 L 40.34375 -105.28125 L 48 -105.28125 L 48 -185.953125 L 84.90625 -185.953125 L 84.90625 0 L 48 0 L 48 -79.859375 L 40.34375 -79.859375 L 40.34375 0 Z M 3.5625 0 "/></g></g></g><g fill="#202020" fill-opacity="1"><g transform="translate(474.716112, 324.771301)"><g><path d="M 3.5625 0 L 3.5625 -185.953125 L 41.296875 -185.953125 L 41.296875 0 Z M 3.5625 0 "/></g></g></g><g fill="#202020" fill-opacity="1"><g transform="translate(521.244529, 324.771301)"><g/></g></g><g fill="#202020" fill-opacity="1"><g transform="translate(559.569018, 324.771301)"><g><path d="M 14.625 0 L 14.625 -158.0625 L 0.953125 -158.0625 L 0.953125 -185.953125 L 65.765625 -185.953125 L 65.765625 -158.0625 L 52.234375 -158.0625 L 52.234375 0 Z M 14.625 0 "/></g></g></g><g fill="#202020" fill-opacity="1"><g transform="translate(628.111369, 324.771301)"><g><path d="M 2.875 -36.921875 L 2.875 -150 C 2.875 -162.570312 6.472656 -172.140625 13.671875 -178.703125 C 20.867188 -185.273438 31.535156 -188.5625 45.671875 -188.5625 C 59.796875 -188.5625 70.4375 -185.253906 77.59375 -178.640625 C 84.75 -172.035156 88.328125 -162.210938 88.328125 -149.171875 L 88.328125 -36.921875 C 88.328125 -23.878906 84.75 -14.007812 77.59375 -7.3125 C 70.4375 -0.613281 59.796875 2.734375 45.671875 2.734375 C 31.535156 2.734375 21.003906 -0.632812 14.078125 -7.375 C 7.148438 -14.125 3.414062 -23.972656 2.875 -36.921875 Z M 41.84375 -32.40625 C 41.84375 -29.757812 43.117188 -28.4375 45.671875 -28.4375 C 48.222656 -28.4375 49.5 -29.757812 49.5 -32.40625 L 49.5 -153.6875 C 49.5 -156.332031 48.222656 -157.65625 45.671875 -157.65625 C 43.117188 -157.65625 41.84375 -156.332031 41.84375 -153.6875 Z M 41.84375 -32.40625 "/></g></g></g><g fill="#202020" fill-opacity="1"><g transform="translate(720.992065, 324.771301)"><g><path d="M 3.5625 0 L 3.5625 -185.953125 L 42.9375 -185.953125 L 46.21875 -159.984375 L 54.828125 -68.90625 L 56.75 -68.90625 L 51.28125 -185.953125 L 83.953125 -185.953125 L 83.953125 0 L 44.578125 0 L 41.296875 -25.5625 L 31.578125 -123.203125 L 29.671875 -123.328125 L 35.96875 0 Z M 3.5625 0 "/></g></g></g><g fill="#202020" fill-opacity="1"><g transform="translate(810.181014, 324.771301)"><g><path d="M 3.5625 0 L 3.5625 -185.953125 L 41.296875 -185.953125 L 41.296875 0 Z M 3.5625 0 "/></g></g></g><g fill="#202020" fill-opacity="1"><g transform="translate(856.709431, 324.771301)"><g><path d="M 45.53125 2.734375 C 31.488281 2.734375 20.867188 -0.613281 13.671875 -7.3125 C 6.472656 -14.007812 2.875 -23.878906 2.875 -36.921875 L 2.875 -149.171875 C 2.875 -162.210938 6.472656 -172.035156 13.671875 -178.640625 C 20.867188 -185.253906 31.488281 -188.5625 45.53125 -188.5625 C 73.332031 -188.5625 87.597656 -175.84375 88.328125 -150.40625 L 88.328125 -97.21875 L 49.359375 -97.21875 L 49.359375 -153.6875 C 49.359375 -156.332031 48.082031 -157.65625 45.53125 -157.65625 C 42.882812 -157.65625 41.5625 -156.332031 41.5625 -153.6875 L 41.5625 -32.40625 C 41.5625 -29.757812 42.882812 -28.4375 45.53125 -28.4375 C 48.082031 -28.4375 49.359375 -29.757812 49.359375 -32.40625 L 49.359375 -88.734375 L 88.328125 -88.734375 L 88.328125 -35.546875 C 87.503906 -10.023438 73.238281 2.734375 45.53125 2.734375 Z M 45.53125 2.734375 "/></g></g></g><g clip-path="url(#39bbba47b8)"><path fill="#231f20" d="M 38.464844 0 L 39.441406 0 L 39.441406 487.5 L 38.464844 487.5 Z M 38.464844 0 " fill-opacity="1" fill-rule="nonzero"/></g><g clip-path="url(#91cd6f9ea0)"><path fill="#231f20" d="M 75.789062 0 L 76.765625 0 L 76.765625 487.5 L 75.789062 487.5 Z M 75.789062 0 " fill-opacity="1" fill-rule="nonzero"/></g><g clip-path="url(#9019d5a22d)"><path fill="#231f20" d="M 113.121094 0 L 114.097656 0 L 114.097656 487.5 L 113.121094 487.5 Z M 113.121094 0 " fill-opacity="1" fill-rule="nonzero"/></g><g clip-path="url(#9950933162)"><path fill="#231f20" d="M 150.445312 0 L 151.417969 0 L 151.417969 487.5 L 150.445312 487.5 Z M 150.445312 0 " fill-opacity="1" fill-rule="nonzero"/></g><g clip-path="url(#7016903076)"><path fill="#231f20" d="M 187.769531 0 L 188.742188 0 L 188.742188 487.5 L 187.769531 487.5 Z M 187.769531 0 " fill-opacity="1" fill-rule="nonzero"/></g><g clip-path="url(#4a1b349ded)"><path fill="#231f20" d="M 225.101562 0 L 226.074219 0 L 226.074219 487.5 L 225.101562 487.5 Z M 225.101562 0 " fill-opacity="1" fill-rule="nonzero"/></g><g clip-path="url(#954114a396)"><path fill="#231f20" d="M 262.425781 0 L 263.398438 0 L 263.398438 487.5 L 262.425781 487.5 Z M 262.425781 0 " fill-opacity="1" fill-rule="nonzero"/></g><g clip-path="url(#b75d6ba440)"><path fill="#231f20" d="M 299.757812 0 L 300.730469 0 L 300.730469 487.5 L 299.757812 487.5 Z M 299.757812 0 " fill-opacity="1" fill-rule="nonzero"/></g><g clip-path="url(#b35c5134b6)"><path fill="#231f20" d="M 337.078125 0 L 338.054688 0 L 338.054688 487.5 L 337.078125 487.5 Z M 337.078125 0 " fill-opacity="1" fill-rule="nonzero"/></g><g clip-path="url(#151cc621dc)"><path fill="#231f20" d="M 374.402344 0 L 375.378906 0 L 375.378906 487.5 L 374.402344 487.5 Z M 374.402344 0 " fill-opacity="1" fill-rule="nonzero"/></g><g clip-path="url(#7081953434)"><path fill="#231f20" d="M 411.734375 0 L 412.710938 0 L 412.710938 487.5 L 411.734375 487.5 Z M 411.734375 0 " fill-opacity="1" fill-rule="nonzero"/></g><g clip-path="url(#4b1cf468e7)"><path fill="#231f20" d="M 449.058594 0 L 450.035156 0 L 450.035156 487.5 L 449.058594 487.5 Z M 449.058594 0 " fill-opacity="1" fill-rule="nonzero"/></g><g clip-path="url(#0866e7211e)"><path fill="#231f20" d="M 0.5 37.964844 L 488 37.964844 L 488 38.941406 L 0.5 38.941406 Z M 0.5 37.964844 " fill-opacity="1" fill-rule="nonzero"/></g><g clip-path="url(#b8b04bdc92)"><path fill="#231f20" d="M 0.5 75.289062 L 488 75.289062 L 488 76.265625 L 0.5 76.265625 Z M 0.5 75.289062 " fill-opacity="1" fill-rule="nonzero"/></g><g clip-path="url(#36d8994575)"><path fill="#231f20" d="M 0.5 112.621094 L 488 112.621094 L 488 113.597656 L 0.5 113.597656 Z M 0.5 112.621094 " fill-opacity="1" fill-rule="nonzero"/></g><g clip-path="url(#79f9cf400d)"><path fill="#231f20" d="M 0.5 149.945312 L 488 149.945312 L 488 150.921875 L 0.5 150.921875 Z M 0.5 149.945312 " fill-opacity="1" fill-rule="nonzero"/></g><g clip-path="url(#1438d5b40c)"><path fill="#231f20" d="M 0.5 187.269531 L 488 187.269531 L 488 188.242188 L 0.5 188.242188 Z M 0.5 187.269531 " fill-opacity="1" fill-rule="nonzero"/></g><g clip-path="url(#f0b3e67ddb)"><path fill="#231f20" d="M 0.5 224.601562 L 488 224.601562 L 488 225.578125 L 0.5 225.578125 Z M 0.5 224.601562 " fill-opacity="1" fill-rule="nonzero"/></g><g clip-path="url(#2b021d10c6)"><path fill="#231f20" d="M 0.5 261.925781 L 488 261.925781 L 488 262.898438 L 0.5 262.898438 Z M 0.5 261.925781 " fill-opacity="1" fill-rule="nonzero"/></g><g clip-path="url(#0bb56176e6)"><path fill="#231f20" d="M 0.5 299.257812 L 488 299.257812 L 488 300.234375 L 0.5 300.234375 Z M 0.5 299.257812 " fill-opacity="1" fill-rule="nonzero"/></g><g clip-path="url(#d8a17afdf4)"><path fill="#231f20" d="M 0.5 336.582031 L 488 336.582031 L 488 337.554688 L 0.5 337.554688 Z M 0.5 336.582031 " fill-opacity="1" fill-rule="nonzero"/></g><g clip-path="url(#ef87fb3626)"><path fill="#231f20" d="M 0.5 373.902344 L 488 373.902344 L 488 374.878906 L 0.5 374.878906 Z M 0.5 373.902344 " fill-opacity="1" fill-rule="nonzero"/></g><g clip-path="url(#6336ac5b3b)"><path fill="#231f20" d="M 0.5 411.238281 L 488 411.238281 L 488 412.210938 L 0.5 412.210938 Z M 0.5 411.238281 " fill-opacity="1" fill-rule="nonzero"/></g><g clip-path="url(#6a7a560254)"><path fill="#231f20" d="M 0.5 448.558594 L 488 448.558594 L 488 449.535156 L 0.5 449.535156 Z M 0.5 448.558594 " fill-opacity="1" fill-rule="nonzero"/></g><g clip-path="url(#cdc77fb32f)"><path fill="#231f20" d="M 488.851562 0 L 489.824219 0 L 489.824219 487.5 L 488.851562 487.5 Z M 488.851562 0 " fill-opacity="1" fill-rule="nonzero"/></g><g clip-path="url(#b94fce6488)"><path fill="#231f20" d="M 526.171875 0 L 527.148438 0 L 527.148438 487.5 L 526.171875 487.5 Z M 526.171875 0 " fill-opacity="1" fill-rule="nonzero"/></g><g clip-path="url(#cdbbaedd7e)"><path fill="#231f20" d="M 563.503906 0 L 564.480469 0 L 564.480469 487.5 L 563.503906 487.5 Z M 563.503906 0 " fill-opacity="1" fill-rule="nonzero"/></g><g clip-path="url(#2d02c7c69c)"><path fill="#231f20" d="M 600.828125 0 L 601.804688 0 L 601.804688 487.5 L 600.828125 487.5 Z M 600.828125 0 " fill-opacity="1" fill-rule="nonzero"/></g><g clip-path="url(#0403abc000)"><path fill="#231f20" d="M 638.152344 0 L 639.125 0 L 639.125 487.5 L 638.152344 487.5 Z M 638.152344 0 " fill-opacity="1" fill-rule="nonzero"/></g><g clip-path="url(#3296467723)"><path fill="#231f20" d="M 675.484375 0 L 676.460938 0 L 676.460938 487.5 L 675.484375 487.5 Z M 675.484375 0 " fill-opacity="1" fill-rule="nonzero"/></g><g clip-path="url(#528371b7e5)"><path fill="#231f20" d="M 712.808594 0 L 713.78125 0 L 713.78125 487.5 L 712.808594 487.5 Z M 712.808594 0 " fill-opacity="1" fill-rule="nonzero"/></g><g clip-path="url(#a329cb1354)"><path fill="#231f20" d="M 750.140625 0 L 751.117188 0 L 751.117188 487.5 L 750.140625 487.5 Z M 750.140625 0 " fill-opacity="1" fill-rule="nonzero"/></g><g clip-path="url(#c1639a5361)"><path fill="#231f20" d="M 787.464844 0 L 788.4375 0 L 788.4375 487.5 L 787.464844 487.5 Z M 787.464844 0 " fill-opacity="1" fill-rule="nonzero"/></g><g clip-path="url(#2c38cdc729)"><path fill="#231f20" d="M 824.785156 0 L 825.761719 0 L 825.761719 487.5 L 824.785156 487.5 Z M 824.785156 0 " fill-opacity="1" fill-rule="nonzero"/></g><g clip-path="url(#4b50c12e30)"><path fill="#231f20" d="M 862.121094 0 L 863.09375 0 L 863.09375 487.5 L 862.121094 487.5 Z M 862.121094 0 " fill-opacity="1" fill-rule="nonzero"/></g><g clip-path="url(#537260cca3)"><path fill="#231f20" d="M 899.441406 0 L 900.417969 0 L 900.417969 487.5 L 899.441406 487.5 Z M 899.441406 0 " fill-opacity="1" fill-rule="nonzero"/></g><g clip-path="url(#02708af912)"><path fill="#231f20" d="M 450.882812 37.964844 L 938.382812 37.964844 L 938.382812 38.941406 L 450.882812 38.941406 Z M 450.882812 37.964844 " fill-opacity="1" fill-rule="nonzero"/></g><g clip-path="url(#9529c7df64)"><path fill="#231f20" d="M 450.882812 75.289062 L 938.382812 75.289062 L 938.382812 76.265625 L 450.882812 76.265625 Z M 450.882812 75.289062 " fill-opacity="1" fill-rule="nonzero"/></g><g clip-path="url(#255a887e09)"><path fill="#231f20" d="M 450.882812 112.621094 L 938.382812 112.621094 L 938.382812 113.597656 L 450.882812 113.597656 Z M 450.882812 112.621094 " fill-opacity="1" fill-rule="nonzero"/></g><g clip-path="url(#e116f62e16)"><path fill="#231f20" d="M 450.882812 149.945312 L 938.382812 149.945312 L 938.382812 150.921875 L 450.882812 150.921875 Z M 450.882812 149.945312 " fill-opacity="1" fill-rule="nonzero"/></g><g clip-path="url(#b143e70d55)"><path fill="#231f20" d="M 450.882812 187.269531 L 938.382812 187.269531 L 938.382812 188.242188 L 450.882812 188.242188 Z M 450.882812 187.269531 " fill-opacity="1" fill-rule="nonzero"/></g><g clip-path="url(#a1ae923d93)"><path fill="#231f20" d="M 450.882812 224.601562 L 938.382812 224.601562 L 938.382812 225.578125 L 450.882812 225.578125 Z M 450.882812 224.601562 " fill-opacity="1" fill-rule="nonzero"/></g><g clip-path="url(#6084508a71)"><path fill="#231f20" d="M 450.882812 261.925781 L 938.382812 261.925781 L 938.382812 262.898438 L 450.882812 262.898438 Z M 450.882812 261.925781 " fill-opacity="1" fill-rule="nonzero"/></g><g clip-path="url(#55f8ffd349)"><path fill="#231f20" d="M 450.882812 299.257812 L 938.382812 299.257812 L 938.382812 300.234375 L 450.882812 300.234375 Z M 450.882812 299.257812 " fill-opacity="1" fill-rule="nonzero"/></g><g clip-path="url(#86c43cd563)"><path fill="#231f20" d="M 450.882812 336.582031 L 938.382812 336.582031 L 938.382812 337.554688 L 450.882812 337.554688 Z M 450.882812 336.582031 " fill-opacity="1" fill-rule="nonzero"/></g><g clip-path="url(#740cacab65)"><path fill="#231f20" d="M 450.882812 373.902344 L 938.382812 373.902344 L 938.382812 374.878906 L 450.882812 374.878906 Z M 450.882812 373.902344 " fill-opacity="1" fill-rule="nonzero"/></g><g clip-path="url(#089d6cd634)"><path fill="#231f20" d="M 450.882812 411.238281 L 938.382812 411.238281 L 938.382812 412.210938 L 450.882812 412.210938 Z M 450.882812 411.238281 " fill-opacity="1" fill-rule="nonzero"/></g><g clip-path="url(#e315b9be98)"><path fill="#231f20" d="M 450.882812 448.558594 L 938.382812 448.558594 L 938.382812 449.535156 L 450.882812 449.535156 Z M 450.882812 448.558594 " fill-opacity="1" fill-rule="nonzero"/></g><g clip-path="url(#40b2d5912a)"><path fill="#231f20" d="M 937.101562 0 L 938.074219 0 L 938.074219 487.5 L 937.101562 487.5 Z M 937.101562 0 " fill-opacity="1" fill-rule="nonzero"/></g><g clip-path="url(#8f462f3b3f)"><path fill="#231f20" d="M 974.421875 0 L 975.398438 0 L 975.398438 487.5 L 974.421875 487.5 Z M 974.421875 0 " fill-opacity="1" fill-rule="nonzero"/></g><g clip-path="url(#6e1ea3966e)"><path fill="#231f20" d="M 899.132812 37.964844 L 1386.632812 37.964844 L 1386.632812 38.941406 L 899.132812 38.941406 Z M 899.132812 37.964844 " fill-opacity="1" fill-rule="nonzero"/></g><g clip-path="url(#8702335be2)"><path fill="#231f20" d="M 899.132812 75.289062 L 1386.632812 75.289062 L 1386.632812 76.265625 L 899.132812 76.265625 Z M 899.132812 75.289062 " fill-opacity="1" fill-rule="nonzero"/></g><g clip-path="url(#648539fad8)"><path fill="#231f20" d="M 899.132812 112.621094 L 1386.632812 112.621094 L 1386.632812 113.597656 L 899.132812 113.597656 Z M 899.132812 112.621094 " fill-opacity="1" fill-rule="nonzero"/></g><g clip-path="url(#462a05093e)"><path fill="#231f20" d="M 899.132812 149.945312 L 1386.632812 149.945312 L 1386.632812 150.921875 L 899.132812 150.921875 Z M 899.132812 149.945312 " fill-opacity="1" fill-rule="nonzero"/></g><g clip-path="url(#69a9b9d914)"><path fill="#231f20" d="M 899.132812 187.269531 L 1386.632812 187.269531 L 1386.632812 188.242188 L 899.132812 188.242188 Z M 899.132812 187.269531 " fill-opacity="1" fill-rule="nonzero"/></g><g clip-path="url(#2db5011671)"><path fill="#231f20" d="M 899.132812 224.601562 L 1386.632812 224.601562 L 1386.632812 225.578125 L 899.132812 225.578125 Z M 899.132812 224.601562 " fill-opacity="1" fill-rule="nonzero"/></g><g clip-path="url(#e335166022)"><path fill="#231f20" d="M 899.132812 261.925781 L 1386.632812 261.925781 L 1386.632812 262.898438 L 899.132812 262.898438 Z M 899.132812 261.925781 " fill-opacity="1" fill-rule="nonzero"/></g><g clip-path="url(#2d9aa9742f)"><path fill="#231f20" d="M 899.132812 299.257812 L 1386.632812 299.257812 L 1386.632812 300.234375 L 899.132812 300.234375 Z M 899.132812 299.257812 " fill-opacity="1" fill-rule="nonzero"/></g><g clip-path="url(#30d9fc5cbc)"><path fill="#231f20" d="M 899.132812 336.582031 L 1386.632812 336.582031 L 1386.632812 337.554688 L 899.132812 337.554688 Z M 899.132812 336.582031 " fill-opacity="1" fill-rule="nonzero"/></g><g clip-path="url(#0944a42591)"><path fill="#231f20" d="M 899.132812 373.902344 L 1386.632812 373.902344 L 1386.632812 374.878906 L 899.132812 374.878906 Z M 899.132812 373.902344 " fill-opacity="1" fill-rule="nonzero"/></g><g clip-path="url(#1ac44e99af)"><path fill="#231f20" d="M 899.132812 411.238281 L 1386.632812 411.238281 L 1386.632812 412.210938 L 899.132812 412.210938 Z M 899.132812 411.238281 " fill-opacity="1" fill-rule="nonzero"/></g><g clip-path="url(#282ec7f67b)"><path fill="#231f20" d="M 899.132812 448.558594 L 1386.632812 448.558594 L 1386.632812 449.535156 L 899.132812 449.535156 Z M 899.132812 448.558594 " fill-opacity="1" fill-rule="nonzero"/></g></svg>